<svg width="26" height="25" viewBox="0 0 26 25" fill="none" xmlns="http://www.w3.org/2000/svg">
<path d="M3.7 12.699H13.4465L13.8835 13.378L15.4296 15.7802L16.3183 17.161V23.3001H3.7V12.699Z" fill="#00F6D2" stroke="white" stroke-width="1.4"/>
<path d="M18.5016 24.0001H1.50005C1.22402 24.0001 1 23.7761 1 23.5C1 23.224 1.22402 23 1.50005 23H18.5016C18.7777 23 19.0017 23.224 19.0017 23.5C19.0017 23.7761 18.7777 24.0001 18.5016 24.0001Z" fill="white" stroke="white" stroke-width="0.6"/>
<path d="M22.3708 9.68666C22.3688 9.68666 22.3678 9.68666 22.3658 9.68666C21.9638 9.68566 21.5868 9.52664 21.3037 9.24162L15.7792 3.65409C15.2012 3.06904 15.2042 2.11995 15.7862 1.53889L16.8863 0.438791C17.4704 -0.146264 18.4235 -0.146264 19.0075 0.438791L24.564 5.99431C25.1491 6.57937 25.1491 7.53146 24.564 8.11651L23.4319 9.24862C23.1479 9.53064 22.7719 9.68666 22.3708 9.68666Z" fill="white"/>
<path fill-rule="evenodd" clip-rule="evenodd" d="M16.3457 3.58398L21.4462 8.68449L18.1564 13.6231L13.4513 18.6344C12.3316 19.1062 11.5199 19.0585 11.016 18.4913C10.2601 17.6406 10.4741 16.7441 11.1944 15.8507C11.6745 15.255 12.9142 13.9714 14.9134 11.9999C13.178 10.7653 11.7624 10.6718 10.6667 11.7194C10.5748 11.8074 10.4821 11.9005 10.3888 11.9988C10.0005 12 9.08899 12.0039 8.50049 12C7.91709 11.9962 8.00049 12 6.86541 11.9999C6.44608 9.8594 6.82973 8.15758 8.01637 6.89446C9.20301 5.63135 11.9794 4.52786 16.3457 3.58398Z" fill="#837FFF"/>
<path d="M6.85335 12.585C6.63833 12.585 6.43931 12.445 6.37431 12.229C6.20129 11.6539 6.11328 11.0568 6.11328 10.4548C6.11328 9.5097 6.3393 8.55561 6.76434 7.69353C7.56942 6.08437 9.03656 4.90626 10.7907 4.45922L16.2612 3.06909C16.5313 2.99709 16.8003 3.1631 16.8683 3.43013C16.9363 3.69715 16.7743 3.97018 16.5073 4.03718L11.0367 5.42731C9.5646 5.80335 8.33449 6.79144 7.66043 8.13857C7.30339 8.86163 7.11337 9.66271 7.11337 10.4548C7.11337 10.9588 7.18638 11.4589 7.3314 11.9419C7.4114 12.2059 7.26139 12.485 6.99636 12.565C6.94836 12.578 6.90036 12.585 6.85335 12.585Z" fill="white"/>
<path d="M10.291 18.3844C9.76392 17.4983 9.93394 16.3382 10.704 15.5641L14.2353 12.0268C13.8153 11.5237 13.1992 11.2487 12.5232 11.2827C11.8101 11.3197 11.1721 11.7127 10.818 12.3338C10.679 12.5748 10.372 12.6558 10.135 12.5198C9.89593 12.3828 9.81192 12.0778 9.94794 11.8378C10.472 10.9207 11.4151 10.3396 12.4702 10.2836C13.5213 10.2266 14.5244 10.7076 15.1424 11.5657L15.2984 11.7827C15.4385 11.9778 15.4205 12.2458 15.2544 12.4198L11.4101 16.2702C10.97 16.7132 10.859 17.3873 11.148 17.8723C11.5571 18.5614 12.5792 18.6764 13.1392 18.1173L17.4816 13.7069L20.963 8.34242C21.114 8.1104 21.424 8.04539 21.654 8.19541C21.8851 8.34542 21.9511 8.65545 21.8 8.88647L18.2907 14.294C18.2727 14.323 18.2517 14.349 18.2277 14.374L13.8483 18.8224C13.4183 19.2544 12.8452 19.4915 12.2342 19.4915C11.4301 19.4915 10.704 19.0774 10.291 18.3844Z" fill="white"/>
</svg>
