<svg width="245" height="123" viewBox="0 0 245 123" fill="none" xmlns="http://www.w3.org/2000/svg">
<path d="M98 68.4971H122.752L123.919 70.3091L127.784 76.3147L130.046 79.8284V95.4998H98V68.4971Z" fill="#042548" stroke="white" stroke-width="3"/>
<path d="M114.108 74L121.558 86.8368H106.656L114.108 74ZM114.108 78.2409L110.33 84.725H117.88L114.106 78.2396L114.108 78.2409Z" fill="#0B76FF"/>
<g style="mix-blend-mode:lighten">
<path d="M114.106 91.0947L106.657 78.258H121.559L114.106 91.0947ZM114.106 86.8551L117.885 80.3697H110.335L114.108 86.8538L114.106 86.8551Z" fill="#00E3C2"/>
</g>
<path d="M109.824 75.1484L122.694 82.5402L109.789 89.991L109.824 75.1484ZM111.944 78.8209L111.917 86.3253L118.455 82.5523L111.944 78.8209Z" fill="#25C0FF"/>
<g style="mix-blend-mode:lighten">
<path d="M118.37 89.9551L105.501 82.5628L118.406 75.112L118.37 89.9551ZM116.251 86.2835L116.28 78.7778L109.742 82.5528L116.251 86.2816L116.251 86.2835Z" fill="#FF51FF"/>
</g>
<path d="M135.254 96.9997H92.7501C92.0601 96.9997 91.5 96.4397 91.5 95.7496C91.5 95.0596 92.0601 94.4995 92.7501 94.4995H135.254C135.944 94.4995 136.504 95.0596 136.504 95.7496C136.504 96.4397 135.944 96.9997 135.254 96.9997Z" fill="white" stroke="white" stroke-width="0.6"/>
<path d="M146.929 61.2166C146.924 61.2166 146.921 61.2166 146.916 61.2166C145.911 61.2141 144.969 60.8165 144.261 60.104L130.45 46.1352C129.005 44.6726 129.012 42.2999 130.467 40.8472L133.218 38.097C134.678 36.6343 137.061 36.6343 138.521 38.097L152.412 51.9857C153.875 53.4484 153.875 55.8286 152.412 57.2912L149.582 60.1215C148.872 60.8265 147.932 61.2166 146.929 61.2166Z" fill="white"/>
<path fill-rule="evenodd" clip-rule="evenodd" d="M131.859 45.959L144.61 58.7102L136.386 71.0567L124.623 83.585C121.824 84.7644 119.795 84.6451 118.535 83.2272C116.645 81.1003 117.18 78.8593 118.981 76.6256C120.181 75.1365 123.281 71.9276 128.279 66.9988C123.94 63.9122 120.401 63.6785 117.662 66.2976C117.432 66.5174 117.2 66.7502 116.967 66.996C115.996 66.999 113.718 67.0086 112.246 66.999C110.788 66.9894 110.996 66.999 108.159 66.9988C107.11 61.6475 108.069 57.3929 111.036 54.2352C114.003 51.0774 120.944 48.3187 131.859 45.959Z" fill="#837FFF"/>
<path d="M107.135 68.4636C106.598 68.4636 106.1 68.1136 105.938 67.5735C105.505 66.1359 105.285 64.6433 105.285 63.1381C105.285 60.7754 105.85 58.3902 106.913 56.235C108.925 52.2121 112.593 49.2669 116.979 48.1493L130.655 44.674C131.33 44.4939 132.003 44.909 132.173 45.5765C132.343 46.2441 131.938 46.9267 131.27 47.0942L117.594 50.5695C113.913 51.5096 110.838 53.9798 109.153 57.3476C108.26 59.1553 107.785 61.158 107.785 63.1381C107.785 64.3982 107.968 65.6484 108.33 66.856C108.53 67.516 108.155 68.2136 107.493 68.4136C107.373 68.4461 107.253 68.4636 107.135 68.4636Z" fill="white"/>
<path d="M115.729 82.9621C114.412 80.7469 114.837 77.8466 116.762 75.9114L125.59 67.0681C124.54 65.8105 123 65.1229 121.31 65.2079C119.527 65.3005 117.932 66.283 117.047 67.8357C116.699 68.4382 115.932 68.6408 115.339 68.3007C114.742 67.9582 114.532 67.1956 114.872 66.5956C116.182 64.3029 118.54 62.8502 121.177 62.7102C123.805 62.5677 126.313 63.7703 127.858 65.9155L128.248 66.4581C128.598 66.9456 128.553 67.6157 128.138 68.0507L118.527 77.6766C117.427 78.7842 117.15 80.4693 117.872 81.6819C118.895 83.4046 121.45 83.6921 122.85 82.2945L133.706 71.2685L142.409 57.8573C142.787 57.2772 143.562 57.1147 144.137 57.4897C144.715 57.8648 144.88 58.6398 144.502 59.2174L135.729 72.7361C135.684 72.8086 135.631 72.8736 135.571 72.9361L124.623 84.0572C123.548 85.1373 122.115 85.7298 120.587 85.7298C118.577 85.7298 116.762 84.6947 115.729 82.9621Z" fill="white"/>
<path d="M238.357 98C238.235 97.9999 238.114 98.0238 238.002 98.0704C237.889 98.117 237.787 98.1853 237.701 98.2715C237.614 98.3577 237.546 98.4601 237.499 98.5727C237.453 98.6854 237.429 98.8061 237.429 98.928V99.552C237.437 99.7927 237.538 100.021 237.711 100.188C237.884 100.356 238.116 100.45 238.357 100.45C238.597 100.45 238.829 100.356 239.002 100.188C239.175 100.021 239.276 99.7927 239.284 99.552V98.928C239.284 98.8062 239.26 98.6855 239.214 98.5729C239.167 98.4604 239.099 98.3581 239.013 98.2719C238.927 98.1857 238.825 98.1173 238.712 98.0707C238.6 98.024 238.479 98 238.357 98ZM238.357 107.224C238.235 107.224 238.115 107.248 238.002 107.294C237.889 107.341 237.787 107.409 237.701 107.495C237.615 107.581 237.546 107.683 237.5 107.796C237.453 107.909 237.429 108.029 237.429 108.151V108.776C237.429 109.022 237.527 109.258 237.701 109.432C237.875 109.606 238.111 109.703 238.357 109.703C238.603 109.703 238.838 109.606 239.012 109.432C239.186 109.258 239.284 109.022 239.284 108.776V108.151C239.284 107.905 239.186 107.669 239.013 107.496C238.839 107.322 238.603 107.224 238.357 107.224ZM241.401 101.74C241.523 101.74 241.643 101.716 241.756 101.669C241.868 101.623 241.97 101.554 242.056 101.468L242.499 101.026C242.585 100.94 242.654 100.838 242.7 100.725C242.747 100.613 242.771 100.492 242.771 100.37C242.771 100.249 242.747 100.128 242.7 100.015C242.654 99.9029 242.586 99.8006 242.5 99.7145C242.413 99.6284 242.311 99.56 242.199 99.5134C242.086 99.4667 241.966 99.4427 241.844 99.4426C241.722 99.4426 241.602 99.4665 241.489 99.5131C241.376 99.5596 241.274 99.6279 241.188 99.714L240.746 100.155C240.615 100.284 240.526 100.45 240.49 100.63C240.454 100.81 240.472 100.997 240.542 101.167C240.612 101.337 240.732 101.482 240.885 101.584C241.038 101.686 241.218 101.74 241.402 101.739L241.401 101.74ZM234.657 106.236L234.215 106.677C234.041 106.851 233.943 107.087 233.943 107.333C233.943 107.579 234.04 107.815 234.214 107.989C234.388 108.163 234.624 108.261 234.87 108.261C235.116 108.261 235.352 108.164 235.526 107.99L235.968 107.548C236.054 107.462 236.123 107.36 236.169 107.247C236.216 107.135 236.24 107.014 236.24 106.893C236.24 106.771 236.216 106.65 236.17 106.538C236.123 106.425 236.055 106.323 235.969 106.237C235.883 106.151 235.781 106.082 235.668 106.036C235.556 105.989 235.435 105.965 235.314 105.965C235.192 105.965 235.071 105.989 234.959 106.035C234.846 106.082 234.744 106.15 234.658 106.236H234.657ZM243.286 102.924H242.661C242.415 102.924 242.179 103.022 242.005 103.196C241.831 103.37 241.734 103.606 241.734 103.852C241.734 104.097 241.831 104.333 242.005 104.507C242.179 104.681 242.415 104.779 242.661 104.779H243.286C243.532 104.779 243.768 104.681 243.942 104.507C244.116 104.333 244.214 104.097 244.214 103.852C244.214 103.606 244.116 103.37 243.942 103.196C243.768 103.022 243.532 102.924 243.286 102.924ZM234.979 103.852C234.979 103.73 234.955 103.61 234.909 103.497C234.862 103.384 234.794 103.282 234.708 103.196C234.622 103.11 234.52 103.041 234.407 102.995C234.294 102.948 234.174 102.924 234.052 102.924H233.427C233.181 102.924 232.945 103.022 232.771 103.196C232.597 103.37 232.5 103.606 232.5 103.852C232.5 104.097 232.597 104.333 232.771 104.507C232.945 104.681 233.181 104.779 233.427 104.779H234.052C234.298 104.779 234.534 104.681 234.708 104.508C234.882 104.334 234.98 104.098 234.98 103.852H234.979ZM242.056 106.236C241.88 106.073 241.647 105.984 241.407 105.988C241.167 105.993 240.938 106.09 240.768 106.26C240.598 106.43 240.501 106.659 240.497 106.899C240.493 107.14 240.582 107.372 240.745 107.548L241.187 107.99C241.361 108.164 241.597 108.262 241.843 108.262C242.09 108.261 242.326 108.164 242.5 107.99C242.674 107.815 242.771 107.579 242.771 107.333C242.771 107.087 242.673 106.851 242.499 106.677L242.056 106.236ZM235.526 99.714C235.35 99.5506 235.117 99.4618 234.877 99.4663C234.637 99.4708 234.408 99.5683 234.238 99.7382C234.068 99.9081 233.971 100.137 233.967 100.377C233.963 100.618 234.052 100.85 234.215 101.026L234.657 101.468C234.831 101.642 235.067 101.74 235.313 101.74C235.56 101.739 235.796 101.642 235.97 101.467C236.144 101.293 236.241 101.057 236.241 100.811C236.241 100.565 236.143 100.329 235.969 100.155L235.526 99.714ZM55.999 0C55.255 0 54.653 0.603 54.653 1.347V2.256C54.6461 2.43712 54.6757 2.6178 54.7402 2.78719C54.8047 2.95659 54.9027 3.11122 55.0284 3.24184C55.1541 3.37245 55.3048 3.47636 55.4716 3.54734C55.6384 3.61831 55.8178 3.65489 55.999 3.65489C56.1803 3.65489 56.3597 3.61831 56.5265 3.54734C56.6933 3.47636 56.844 3.37245 56.9697 3.24184C57.0954 3.11122 57.1934 2.95659 57.2579 2.78719C57.3224 2.6178 57.352 2.43712 57.345 2.256V1.348C57.345 0.603 56.743 0 55.999 0ZM55.999 13.398C55.255 13.398 54.653 14.001 54.653 14.745V15.652C54.6461 15.8331 54.6757 16.0138 54.7402 16.1832C54.8047 16.3526 54.9027 16.5072 55.0284 16.6378C55.1541 16.7685 55.3048 16.8724 55.4716 16.9433C55.6384 17.0143 55.8178 17.0509 55.999 17.0509C56.1803 17.0509 56.3597 17.0143 56.5265 16.9433C56.6933 16.8724 56.844 16.7685 56.9697 16.6378C57.0954 16.5072 57.1934 16.3526 57.2579 16.1832C57.3224 16.0138 57.352 15.8331 57.345 15.652V14.745C57.345 14.001 56.743 13.398 55.999 13.398ZM60.416 5.431C60.761 5.431 61.106 5.3 61.369 5.036L62.009 4.396C62.2621 4.14378 62.4045 3.80138 62.4051 3.44412C62.4056 3.08686 62.2643 2.74402 62.012 2.491C61.7598 2.23798 61.4174 2.09552 61.0602 2.09496C60.7029 2.0944 60.3601 2.23578 60.107 2.488L59.465 3.13C59.2762 3.31827 59.1474 3.55837 59.0951 3.81988C59.0428 4.08139 59.0694 4.35254 59.1713 4.59896C59.2733 4.84539 59.4461 5.05601 59.6678 5.20413C59.8896 5.35225 60.1494 5.43121 60.416 5.431ZM50.63 11.963L49.99 12.603C49.8027 12.7917 49.6753 13.0315 49.6238 13.2924C49.5723 13.5532 49.5989 13.8234 49.7004 14.0692C49.8018 14.315 49.9736 14.5253 50.1941 14.6738C50.4147 14.8223 50.6742 14.9024 50.94 14.904C51.285 14.904 51.63 14.773 51.892 14.51L52.534 13.87C52.7867 13.6172 52.9287 13.2744 52.9287 12.917C52.9287 12.5596 52.7867 12.2168 52.534 11.964C52.4092 11.8387 52.2608 11.7393 52.0975 11.6715C51.9341 11.6036 51.7589 11.5687 51.582 11.5687C51.4052 11.5687 51.23 11.6036 51.0666 11.6715C50.9033 11.7393 50.7549 11.8377 50.63 11.963ZM63.153 7.153H62.245C61.8878 7.153 61.5452 7.29492 61.2926 7.54753C61.04 7.80014 60.898 8.14275 60.898 8.5C60.898 8.85725 61.04 9.19986 61.2926 9.45247C61.5452 9.70508 61.8878 9.847 62.245 9.847H63.153C63.5103 9.847 63.8529 9.70508 64.1055 9.45247C64.3581 9.19986 64.5 8.85725 64.5 8.5C64.5 8.14275 64.3581 7.80014 64.1055 7.54753C63.8529 7.29492 63.5103 7.153 63.153 7.153ZM51.099 8.5C51.099 7.756 50.496 7.153 49.753 7.153H48.845C48.4878 7.153 48.1452 7.29492 47.8926 7.54753C47.64 7.80014 47.498 8.14275 47.498 8.5C47.498 8.85725 47.64 9.19986 47.8926 9.45247C48.1452 9.70508 48.4878 9.847 48.845 9.847H49.753C50.496 9.847 51.099 9.244 51.099 8.5ZM61.369 11.963C61.2438 11.838 61.0952 11.7389 60.9317 11.6713C60.7682 11.6037 60.5929 11.569 60.416 11.5691C60.239 11.5692 60.0639 11.6042 59.9004 11.6721C59.737 11.7399 59.5886 11.8393 59.4635 11.9645C59.3385 12.0897 59.2394 12.2383 59.1718 12.4019C59.1042 12.5654 59.0695 12.7406 59.0697 12.9176C59.0698 13.0945 59.1048 13.2697 59.1726 13.4331C59.2405 13.5965 59.3398 13.745 59.465 13.87L60.107 14.51C60.2319 14.6354 60.3803 14.7348 60.5437 14.8026C60.7071 14.8704 60.8823 14.9053 61.0593 14.9052C61.2362 14.9051 61.4113 14.8701 61.5747 14.8021C61.738 14.7341 61.8863 14.6345 62.011 14.509C62.263 14.2557 62.4042 13.9128 62.4039 13.5556C62.4035 13.1983 62.2615 12.8558 62.009 12.603L61.369 11.963ZM50.629 5.036C50.7537 5.16193 50.902 5.2619 51.0655 5.33012C51.229 5.39835 51.4044 5.43348 51.5815 5.43348C51.7587 5.43348 51.9341 5.39835 52.0976 5.33012C52.2611 5.2619 52.4094 5.16193 52.534 5.036C52.7866 4.78308 52.9284 4.44022 52.9282 4.08279C52.928 3.72537 52.7859 3.38265 52.533 3.13L51.891 2.488C51.638 2.23565 51.2951 2.09414 50.9378 2.09461C50.5804 2.09508 50.2379 2.23748 49.9855 2.4905C49.7332 2.74352 49.5917 3.08642 49.5922 3.44377C49.5926 3.80112 49.735 4.14365 49.988 4.396L50.629 5.036Z" fill="#FFB657"/>
<path d="M229.879 27.224L231.019 29.309C231.059 29.382 231.119 29.441 231.191 29.481L233.276 30.621C233.576 30.785 233.576 31.215 233.276 31.378L231.191 32.518C231.118 32.5578 231.059 32.6175 231.02 32.69L229.88 34.775C229.716 35.075 229.286 35.075 229.122 34.775L227.982 32.69C227.942 32.6176 227.882 32.5582 227.81 32.519L225.725 31.379C225.656 31.342 225.599 31.2873 225.56 31.2206C225.52 31.1539 225.499 31.0777 225.499 31C225.499 30.9224 225.52 30.8462 225.56 30.7794C225.599 30.7127 225.656 30.658 225.725 30.621L227.81 29.481C227.882 29.4417 227.942 29.3823 227.982 29.31L229.122 27.224C229.286 26.924 229.716 26.924 229.879 27.224ZM39.6157 110.365L41.4687 113.753C41.5333 113.871 41.63 113.967 41.7477 114.032L45.1357 115.885C45.2463 115.945 45.3387 116.034 45.403 116.142C45.4674 116.251 45.5013 116.374 45.5013 116.5C45.5013 116.626 45.4674 116.75 45.403 116.858C45.3387 116.966 45.2463 117.055 45.1357 117.115L41.7477 118.968C41.63 119.033 41.5333 119.129 41.4687 119.247L39.6157 122.635C39.5555 122.746 39.4667 122.838 39.3584 122.902C39.2502 122.967 39.1266 123.001 39.0007 123.001C38.8747 123.001 38.7512 122.967 38.6429 122.902C38.5347 122.838 38.4458 122.746 38.3857 122.635L36.5327 119.247C36.4681 119.129 36.3713 119.033 36.2537 118.968L32.8657 117.115C32.755 117.055 32.6627 116.966 32.5983 116.858C32.534 116.75 32.5 116.626 32.5 116.5C32.5 116.374 32.534 116.251 32.5983 116.142C32.6627 116.034 32.755 115.945 32.8657 115.885L36.2537 114.032C36.3715 113.968 36.4683 113.871 36.5327 113.753L38.3857 110.365C38.4458 110.254 38.5347 110.162 38.6429 110.098C38.7512 110.033 38.8747 109.999 39.0007 109.999C39.1266 109.999 39.2502 110.033 39.3584 110.098C39.4667 110.162 39.5555 110.254 39.6157 110.365Z" fill="white"/>
<path d="M16.5 66.5C24.5081 66.5 31 60.0081 31 52C31 43.9919 24.5081 37.5 16.5 37.5C8.49187 37.5 2 43.9919 2 52C2 60.0081 8.49187 66.5 16.5 66.5Z" fill="#000A16" stroke="url(#paint0_linear_1852_2997)" stroke-width="3"/>
<path d="M16.5101 43.6421L24.1501 56.8061H8.86914L16.5101 43.6421ZM16.5101 47.9901L12.6381 54.6411H20.3811L16.5101 47.9911V47.9901Z" fill="#0B76FF"/>
<g style="mix-blend-mode:lighten">
<path d="M16.5084 61.1719L8.86839 48.0079H24.1504L16.5084 61.1719ZM16.5084 56.8239L20.3814 50.1729H12.6384L16.5084 56.8229V56.8239Z" fill="#00E3C2"/>
</g>
<path d="M12.118 44.8203L25.316 52.4003L12.082 60.0413L12.118 44.8203ZM14.292 48.5863L14.264 56.2823L20.97 52.4103L14.292 48.5863Z" fill="#25C0FF"/>
<g style="mix-blend-mode:lighten">
<path d="M20.8818 60.0026L7.6834 52.4223L20.918 44.7813L20.8818 60.0026ZM18.7078 56.2372L18.7365 48.5407L12.0308 52.4122L18.7073 56.2363L18.7078 56.2372Z" fill="#FF51FF"/>
</g>
<path d="M199.5 96.5C207.508 96.5 214 90.0081 214 82C214 73.9919 207.508 67.5 199.5 67.5C191.492 67.5 185 73.9919 185 82C185 90.0081 191.492 96.5 199.5 96.5Z" fill="#000A16" stroke="url(#paint1_linear_1852_2997)" stroke-width="3"/>
<path d="M200.112 73.042L207.752 86.206H192.471L200.112 73.042ZM200.112 77.39L196.24 84.041H203.983L200.112 77.391V77.39Z" fill="#0B76FF"/>
<g style="mix-blend-mode:lighten">
<path d="M200.108 90.5718L192.468 77.4078H207.75L200.108 90.5718ZM200.108 86.2238L203.981 79.5728H196.238L200.108 86.2228V86.2238Z" fill="#00E3C2"/>
</g>
<path d="M195.72 74.2197L208.918 81.7997L195.684 89.4407L195.72 74.2197ZM197.894 77.9857L197.866 85.6817L204.572 81.8097L197.894 77.9857Z" fill="#25C0FF"/>
<g style="mix-blend-mode:lighten">
<path d="M204.481 89.4035L191.283 81.8232L204.518 74.1822L204.481 89.4035ZM202.307 85.638L202.336 77.9416L195.63 81.8131L202.307 85.6372L202.307 85.638Z" fill="#FF51FF"/>
</g>
<path d="M169 28C174.799 28 179.5 23.299 179.5 17.5C179.5 11.701 174.799 7 169 7C163.201 7 158.5 11.701 158.5 17.5C158.5 23.299 163.201 28 169 28Z" fill="#000A16" stroke="url(#paint2_linear_1852_2997)" stroke-width="2"/>
<path d="M168.921 11L174.477 20.574H163.363L168.921 11ZM168.921 14.163L166.103 18.999H171.734L168.919 14.162L168.921 14.163Z" fill="#0B76FF"/>
<g style="mix-blend-mode:lighten">
<path d="M168.919 23.75L163.363 14.176L174.477 14.176L168.919 23.75ZM168.919 20.588L171.737 15.751H166.106L168.92 20.587L168.919 20.588Z" fill="#00E3C2"/>
</g>
<path d="M165.725 11.8569L175.324 17.3699L165.699 22.9269L165.725 11.8569ZM167.306 14.5959L167.286 20.1929L172.162 17.3789L167.306 14.5959Z" fill="#25C0FF"/>
<g style="mix-blend-mode:lighten">
<path d="M172.099 22.9001L162.5 17.3868L172.125 11.8298L172.099 22.9001ZM170.518 20.1617L170.54 14.5638L165.663 17.3793L170.518 20.1604L170.518 20.1617Z" fill="#FF51FF"/>
</g>
<defs>
<linearGradient id="paint0_linear_1852_2997" x1="16.5" y1="37.5" x2="16.5" y2="66.5" gradientUnits="userSpaceOnUse">
<stop stop-color="#A17DFF"/>
<stop offset="1" stop-color="#6F7FFF"/>
</linearGradient>
<linearGradient id="paint1_linear_1852_2997" x1="199.5" y1="67.5" x2="199.5" y2="96.5" gradientUnits="userSpaceOnUse">
<stop stop-color="#A17DFF"/>
<stop offset="1" stop-color="#6F7FFF"/>
</linearGradient>
<linearGradient id="paint2_linear_1852_2997" x1="169" y1="7" x2="169" y2="28" gradientUnits="userSpaceOnUse">
<stop stop-color="#A17DFF"/>
<stop offset="1" stop-color="#6F7FFF"/>
</linearGradient>
</defs>
</svg>
